<mxfile>
    <diagram id="BMeir94NGO-oAWchYCb2" name="Page-1">
        <mxGraphModel dx="990" dy="575" grid="1" gridSize="10" guides="1" tooltips="1" connect="1" arrows="1" fold="1" page="1" pageScale="1" pageWidth="1500" pageHeight="2100" math="0" shadow="0">
            <root>
                <mxCell id="0"/>
                <mxCell id="1" parent="0"/>
                <mxCell id="34" value="&lt;h1&gt;Functional Requirements&lt;/h1&gt;&lt;div&gt;1. User should send/receive messages&lt;/div&gt;&lt;div&gt;2. Group Chat (2-256) users&lt;/div&gt;&lt;div&gt;3. Track Message Status (delivered, seen etc)&lt;/div&gt;&lt;div&gt;4. Register account using phone number&lt;/div&gt;&lt;div&gt;5. Push Notification (if user not online send it via notification), when comes online should be able to receive messages&lt;/div&gt;&lt;div&gt;6. Analytics &amp;amp; Monitoring&lt;/div&gt;" style="text;html=1;strokeColor=none;fillColor=none;spacing=5;spacingTop=-20;whiteSpace=wrap;overflow=hidden;rounded=0;" vertex="1" parent="1">
                    <mxGeometry x="50" y="20" width="350" height="170" as="geometry"/>
                </mxCell>
                <mxCell id="35" value="&lt;h1&gt;Non-Functional Requirements&lt;/h1&gt;&lt;div&gt;1. Highly Available(Fault tolerant)&lt;/div&gt;&lt;div&gt;2. Scalable (with increasing load and number of users)&lt;/div&gt;&lt;div&gt;3. Performant - minimal latency&lt;/div&gt;&lt;div&gt;4. Consistency (Strongly)&lt;/div&gt;&lt;div&gt;5. Durability&lt;/div&gt;" style="text;html=1;strokeColor=none;fillColor=none;spacing=5;spacingTop=-20;whiteSpace=wrap;overflow=hidden;rounded=0;" vertex="1" parent="1">
                    <mxGeometry x="50" y="200" width="360" height="140" as="geometry"/>
                </mxCell>
                <mxCell id="36" value="&lt;h1&gt;APIs&lt;/h1&gt;&lt;div&gt;1. registerAccount(api_key, user_information)&lt;/div&gt;&lt;div&gt;2. validateAccount(api_key, user_id, validation_code)&lt;/div&gt;&lt;div&gt;3. initiateDirectChatSession(api_key, sender_id, receiver_id, handshake) (handshake information will be used for end-end encryp)&lt;/div&gt;&lt;div&gt;4. sendMessage(api_key, session_id, message_type, message) (message type - data(only message) or status(delivered read etc)) (returns message id)&lt;/div&gt;&lt;div&gt;5. readNewMessages(api_key, session_id, message_id) (message_id is last message received by user, acts like a read pointer)&lt;/div&gt;&lt;div&gt;&lt;br&gt;&lt;/div&gt;&lt;div&gt;Groups apis&lt;/div&gt;&lt;div&gt;6. initiateGroupChatSession(api_key, group_info)&lt;/div&gt;&lt;div&gt;7. addUserToGroup(api_key,user_id,group_id)&lt;/div&gt;&lt;div&gt;8. removeUserFromGroup(api_key, user_id, group_id)&lt;/div&gt;&lt;div&gt;9. promoteUserToAdmin(api_key, user_id, group_id)&lt;/div&gt;" style="text;html=1;strokeColor=none;fillColor=none;spacing=5;spacingTop=-20;whiteSpace=wrap;overflow=hidden;rounded=0;" vertex="1" parent="1">
                    <mxGeometry x="430" y="20" width="440" height="280" as="geometry"/>
                </mxCell>
                <mxCell id="43" style="edgeStyle=orthogonalEdgeStyle;rounded=0;orthogonalLoop=1;jettySize=auto;html=1;" edge="1" parent="1" source="37">
                    <mxGeometry relative="1" as="geometry">
                        <mxPoint x="210" y="620" as="targetPoint"/>
                    </mxGeometry>
                </mxCell>
                <mxCell id="37" value="Sender" style="shape=umlActor;verticalLabelPosition=bottom;verticalAlign=top;html=1;outlineConnect=0;" vertex="1" parent="1">
                    <mxGeometry x="130" y="590" width="30" height="60" as="geometry"/>
                </mxCell>
                <mxCell id="39" value="Receiver" style="shape=umlActor;verticalLabelPosition=bottom;verticalAlign=top;html=1;outlineConnect=0;" vertex="1" parent="1">
                    <mxGeometry x="130" y="750" width="30" height="60" as="geometry"/>
                </mxCell>
                <mxCell id="44" style="edgeStyle=orthogonalEdgeStyle;rounded=0;orthogonalLoop=1;jettySize=auto;html=1;exitX=0.75;exitY=1;exitDx=0;exitDy=0;" edge="1" parent="1" source="42">
                    <mxGeometry relative="1" as="geometry">
                        <mxPoint x="170" y="808" as="targetPoint"/>
                    </mxGeometry>
                </mxCell>
                <mxCell id="52" style="edgeStyle=orthogonalEdgeStyle;rounded=0;orthogonalLoop=1;jettySize=auto;html=1;entryX=0;entryY=0.5;entryDx=0;entryDy=0;" edge="1" parent="1" source="42" target="49">
                    <mxGeometry relative="1" as="geometry"/>
                </mxCell>
                <mxCell id="60" style="edgeStyle=orthogonalEdgeStyle;rounded=0;orthogonalLoop=1;jettySize=auto;html=1;exitX=0.25;exitY=0;exitDx=0;exitDy=0;" edge="1" parent="1" source="42" target="46">
                    <mxGeometry relative="1" as="geometry"/>
                </mxCell>
                <mxCell id="63" style="edgeStyle=orthogonalEdgeStyle;rounded=0;orthogonalLoop=1;jettySize=auto;html=1;exitX=0.25;exitY=0;exitDx=0;exitDy=0;entryX=0;entryY=0.5;entryDx=0;entryDy=0;" edge="1" parent="1" source="42" target="45">
                    <mxGeometry relative="1" as="geometry"/>
                </mxCell>
                <mxCell id="68" style="edgeStyle=orthogonalEdgeStyle;rounded=0;orthogonalLoop=1;jettySize=auto;html=1;exitX=0.75;exitY=0;exitDx=0;exitDy=0;" edge="1" parent="1" source="42" target="48">
                    <mxGeometry relative="1" as="geometry"/>
                </mxCell>
                <mxCell id="42" value="Routing Service" style="rounded=0;whiteSpace=wrap;html=1;direction=south;" vertex="1" parent="1">
                    <mxGeometry x="220" y="470" width="50" height="450" as="geometry"/>
                </mxCell>
                <mxCell id="61" style="edgeStyle=orthogonalEdgeStyle;rounded=0;orthogonalLoop=1;jettySize=auto;html=1;entryX=0.5;entryY=0;entryDx=0;entryDy=0;" edge="1" parent="1" source="45" target="46">
                    <mxGeometry relative="1" as="geometry"/>
                </mxCell>
                <mxCell id="71" style="edgeStyle=orthogonalEdgeStyle;rounded=0;orthogonalLoop=1;jettySize=auto;html=1;entryX=0.086;entryY=1;entryDx=0;entryDy=0;entryPerimeter=0;" edge="1" parent="1" source="45" target="55">
                    <mxGeometry relative="1" as="geometry"/>
                </mxCell>
                <mxCell id="45" value="Group Service" style="rounded=1;whiteSpace=wrap;html=1;" vertex="1" parent="1">
                    <mxGeometry x="450" y="400" width="120" height="60" as="geometry"/>
                </mxCell>
                <mxCell id="62" style="edgeStyle=orthogonalEdgeStyle;rounded=0;orthogonalLoop=1;jettySize=auto;html=1;entryX=0.5;entryY=0;entryDx=0;entryDy=0;" edge="1" parent="1" source="46" target="47">
                    <mxGeometry relative="1" as="geometry"/>
                </mxCell>
                <mxCell id="72" style="edgeStyle=orthogonalEdgeStyle;rounded=0;orthogonalLoop=1;jettySize=auto;html=1;entryX=0.387;entryY=1.004;entryDx=0;entryDy=0;entryPerimeter=0;" edge="1" parent="1" source="46" target="55">
                    <mxGeometry relative="1" as="geometry"/>
                </mxCell>
                <mxCell id="46" value="Chat Sessions Service" style="rounded=1;whiteSpace=wrap;html=1;" vertex="1" parent="1">
                    <mxGeometry x="450" y="510" width="120" height="60" as="geometry"/>
                </mxCell>
                <mxCell id="65" style="edgeStyle=orthogonalEdgeStyle;rounded=0;orthogonalLoop=1;jettySize=auto;html=1;entryX=1;entryY=0.5;entryDx=0;entryDy=0;" edge="1" parent="1" source="47" target="45">
                    <mxGeometry relative="1" as="geometry">
                        <Array as="points">
                            <mxPoint x="590" y="650"/>
                            <mxPoint x="590" y="430"/>
                        </Array>
                    </mxGeometry>
                </mxCell>
                <mxCell id="66" style="edgeStyle=orthogonalEdgeStyle;rounded=0;orthogonalLoop=1;jettySize=auto;html=1;" edge="1" parent="1" source="47">
                    <mxGeometry relative="1" as="geometry">
                        <mxPoint x="280" y="650" as="targetPoint"/>
                    </mxGeometry>
                </mxCell>
                <mxCell id="67" style="edgeStyle=orthogonalEdgeStyle;rounded=0;orthogonalLoop=1;jettySize=auto;html=1;entryX=0;entryY=0.5;entryDx=0;entryDy=0;" edge="1" parent="1" source="47" target="51">
                    <mxGeometry relative="1" as="geometry"/>
                </mxCell>
                <mxCell id="73" style="edgeStyle=orthogonalEdgeStyle;rounded=0;orthogonalLoop=1;jettySize=auto;html=1;entryX=0.716;entryY=1.025;entryDx=0;entryDy=0;entryPerimeter=0;" edge="1" parent="1" source="47" target="55">
                    <mxGeometry relative="1" as="geometry"/>
                </mxCell>
                <mxCell id="47" value="Fanout Service" style="rounded=1;whiteSpace=wrap;html=1;" vertex="1" parent="1">
                    <mxGeometry x="450" y="620" width="120" height="60" as="geometry"/>
                </mxCell>
                <mxCell id="69" style="edgeStyle=orthogonalEdgeStyle;rounded=0;orthogonalLoop=1;jettySize=auto;html=1;entryX=0.829;entryY=1;entryDx=0;entryDy=0;entryPerimeter=0;" edge="1" parent="1" source="48" target="55">
                    <mxGeometry relative="1" as="geometry"/>
                </mxCell>
                <mxCell id="48" value="User" style="rounded=1;whiteSpace=wrap;html=1;" vertex="1" parent="1">
                    <mxGeometry x="450" y="740" width="120" height="60" as="geometry"/>
                </mxCell>
                <mxCell id="53" style="edgeStyle=orthogonalEdgeStyle;rounded=0;orthogonalLoop=1;jettySize=auto;html=1;" edge="1" parent="1" source="49">
                    <mxGeometry relative="1" as="geometry">
                        <mxPoint x="650" y="960" as="targetPoint"/>
                    </mxGeometry>
                </mxCell>
                <mxCell id="70" style="edgeStyle=orthogonalEdgeStyle;rounded=0;orthogonalLoop=1;jettySize=auto;html=1;entryX=0.5;entryY=1;entryDx=0;entryDy=0;" edge="1" parent="1" source="49" target="48">
                    <mxGeometry relative="1" as="geometry"/>
                </mxCell>
                <mxCell id="49" value="User Registration" style="rounded=1;whiteSpace=wrap;html=1;" vertex="1" parent="1">
                    <mxGeometry x="450" y="860" width="120" height="60" as="geometry"/>
                </mxCell>
                <mxCell id="50" value="Sms Gateway" style="rounded=1;whiteSpace=wrap;html=1;" vertex="1" parent="1">
                    <mxGeometry x="590" y="970" width="120" height="60" as="geometry"/>
                </mxCell>
                <mxCell id="51" value="Push Notification" style="rounded=1;whiteSpace=wrap;html=1;" vertex="1" parent="1">
                    <mxGeometry x="700" y="800" width="120" height="60" as="geometry"/>
                </mxCell>
                <mxCell id="54" value="&lt;h1&gt;User Registration(Sharded by user_id)&lt;/h1&gt;&lt;div&gt;user_id&lt;/div&gt;&lt;div&gt;name&lt;/div&gt;&lt;div&gt;creation_time&lt;/div&gt;&lt;div&gt;verification_code&lt;/div&gt;" style="text;html=1;strokeColor=none;fillColor=none;spacing=5;spacingTop=-20;whiteSpace=wrap;overflow=hidden;rounded=0;" vertex="1" parent="1">
                    <mxGeometry x="60" y="1075" width="350" height="150" as="geometry"/>
                </mxCell>
                <mxCell id="55" value="Database and Caching Layer" style="rounded=1;whiteSpace=wrap;html=1;direction=south;" vertex="1" parent="1">
                    <mxGeometry x="700" y="400" width="110" height="350" as="geometry"/>
                </mxCell>
                <mxCell id="56" value="&lt;h1&gt;Group Table&lt;/h1&gt;&lt;div&gt;group_id&lt;/div&gt;&lt;div&gt;name&lt;/div&gt;&lt;div&gt;description&lt;/div&gt;&lt;div&gt;create_time&lt;/div&gt;&lt;div&gt;member_count&lt;/div&gt;&lt;div&gt;&lt;br&gt;&lt;/div&gt;&lt;div&gt;(both group tables are sharded by group id)&lt;/div&gt;" style="text;html=1;strokeColor=none;fillColor=none;spacing=5;spacingTop=-20;whiteSpace=wrap;overflow=hidden;rounded=0;" vertex="1" parent="1">
                    <mxGeometry x="480" y="1060" width="160" height="180" as="geometry"/>
                </mxCell>
                <mxCell id="57" value="&lt;h1&gt;Group Membership&lt;/h1&gt;&lt;div&gt;group_id (pk)&lt;/div&gt;&lt;div&gt;user_id (sk)&lt;/div&gt;&lt;div&gt;create_time&lt;/div&gt;&lt;div&gt;type (admin or regular)&lt;/div&gt;&lt;div&gt;&lt;br&gt;&lt;/div&gt;&lt;div&gt;(user can get all information about group using this table if he logs in from different device)&lt;/div&gt;" style="text;html=1;strokeColor=none;fillColor=none;spacing=5;spacingTop=-20;whiteSpace=wrap;overflow=hidden;rounded=0;" vertex="1" parent="1">
                    <mxGeometry x="710" y="1060" width="160" height="210" as="geometry"/>
                </mxCell>
                <mxCell id="58" value="&lt;h1&gt;Session Table&lt;/h1&gt;&lt;div&gt;session_id&lt;/div&gt;&lt;div&gt;create_time&lt;/div&gt;&lt;div&gt;type (group or direct)&lt;/div&gt;" style="text;html=1;strokeColor=none;fillColor=none;spacing=5;spacingTop=-20;whiteSpace=wrap;overflow=hidden;rounded=0;" vertex="1" parent="1">
                    <mxGeometry x="460" y="1330" width="190" height="130" as="geometry"/>
                </mxCell>
                <mxCell id="59" value="&lt;h1&gt;Session Message&lt;/h1&gt;&lt;div&gt;session_id&lt;/div&gt;&lt;div&gt;time (both are pk)&lt;/div&gt;&lt;div&gt;create_time&lt;/div&gt;&lt;div&gt;type (group message or private)&lt;/div&gt;&lt;div&gt;sender_id&lt;/div&gt;&lt;div&gt;receiver_id&lt;/div&gt;&lt;div&gt;data&lt;/div&gt;" style="text;html=1;strokeColor=none;fillColor=none;spacing=5;spacingTop=-20;whiteSpace=wrap;overflow=hidden;rounded=0;" vertex="1" parent="1">
                    <mxGeometry x="680" y="1330" width="210" height="160" as="geometry"/>
                </mxCell>
            </root>
        </mxGraphModel>
    </diagram>
</mxfile>